<svg width="512" height="512" viewBox="0 0 512 512" fill="none" xmlns="http://www.w3.org/2000/svg">
<path d="M256.329 477.987C138.098 479.289 33.8512 380.398 33.0056 258.484C32.1275 132.09 135.002 34 255.262 34C376.771 34 477.961 130.755 478 256.863C478.039 382.176 371.6 478.586 256.329 477.987ZM322.238 340.993C325.764 335.341 326.811 329.221 326.668 322.821C326.635 321.284 327.299 320.131 328.17 318.992C331.728 314.35 335.117 309.564 338.864 305.084C343.267 299.817 345.017 293.937 344.926 287.107C344.711 271.07 344.945 255.033 344.796 238.996C344.77 236.021 345.817 234.172 348.1 232.505C352.913 229.002 357.564 225.271 362.351 221.729C368.947 216.852 372.108 210.562 371.731 202.189C371.386 194.428 371.067 186.621 372.843 178.892C374.469 171.828 375.451 164.607 377.129 157.555C380.323 144.136 381.273 131.074 375.679 117.792C369.617 103.396 353.811 97.7244 340.607 106.117C334.48 110.011 329.549 115.187 325.354 121.015C315.018 135.359 306.107 150.608 297.287 165.909C295.759 168.559 293.964 169.666 290.822 169.653C267.64 169.529 244.465 169.477 221.283 169.679C217.244 169.711 214.948 168.318 212.996 164.952C207.181 154.931 201.256 144.963 195.096 135.15C189.112 125.612 183.004 116.144 174.152 108.819C160.649 97.6463 146.599 101.384 139.301 111.014C132.51 119.979 129.85 130.892 131.021 142.339C131.424 146.31 132.445 150.217 133.096 154.169C135.776 170.467 140.713 186.465 139.197 203.309C138.534 210.712 141.682 216.559 147.529 221.013C152.355 224.685 157.058 228.539 162.08 231.932C165.234 234.061 166.379 236.542 166.346 240.299C166.197 256.987 166.392 273.675 166.242 290.363C166.203 294.959 167.53 298.827 170.243 302.402C174.236 307.663 178.107 313.021 182.146 318.25C183.746 320.327 184.617 322.502 184.52 325.132C184.396 328.622 184.696 332.086 186.087 335.335C186.953 337.36 188.039 339.281 189.021 341.254C182.686 336.507 178.659 329.846 173.599 323.517C165.611 343.5 159.367 363.417 158.743 384.585C158.281 400.173 158.736 415.786 158.652 431.394C158.639 433.939 159.595 435.457 161.793 436.479C166.893 438.862 171.888 441.492 177.066 443.693C211.051 458.148 246.423 462.686 282.964 457.907C306.393 454.84 328.437 447.307 349.349 436.349C351.359 435.294 352.133 433.985 352.126 431.758C352.094 421.139 351.872 410.506 352.289 399.906C353.29 374.415 347.82 350.2 338.512 326.682C338.129 325.718 338.031 324.566 336.854 323.927C332.359 329.924 328.528 336.5 322.238 340.993Z" fill="#BBA42F"/>
<path d="M315 346.847C300.757 357.987 284.79 364.79 266.163 366.677C271.257 372.346 274.344 378.126 272.465 385.439C271.406 389.581 269.443 393.133 265.931 395.636C258.319 401.062 248.369 399.811 242.365 392.7C235.986 385.151 236.877 375.747 245.167 366.762C226.32 364.56 209.669 357.614 195 345.883C198.073 346.755 200.972 348.092 204.181 348.478C209.566 349.121 213.956 348.262 217.068 342.902C221.155 335.87 226.127 329.362 230.259 322.357C234.462 315.24 240.731 310.574 247.368 306.321C250.797 304.126 252.372 301.478 251.81 297.448C251.707 296.701 251.668 295.901 251.81 295.167C253.121 288.365 250.08 283.987 244.353 280.973C242.933 280.226 241.777 278.967 240.357 278.227C235.314 275.606 234.727 271.228 235.656 266.28C236.573 261.411 240.215 259.655 244.469 258.941C251.83 257.695 259.274 257.702 266.602 258.868C273.601 259.983 276.597 264.406 276.274 271.628C276.158 274.19 274.473 275.488 272.755 276.779C269.133 279.505 265.472 282.185 261.766 284.793C260.101 285.966 259.365 287.402 259.429 289.466C259.532 292.952 259.513 296.445 259.423 299.932C259.365 302.107 260.088 303.732 261.941 304.853C262.677 305.299 263.329 305.888 264.071 306.328C273.052 311.603 279.58 319.218 284.797 328.216C287.734 333.281 291.434 337.901 294.307 342.993C297.271 348.249 301.661 349.134 306.929 348.518C309.667 348.184 312.25 347.207 315 346.847ZM253.063 351.309C256.956 351.309 259.746 351.316 262.541 351.309C270.16 351.283 277.436 349.96 284.261 346.218C286.533 344.972 286.656 344.173 285.229 342.148C282.292 337.987 279.444 333.74 276.9 329.323C272.31 321.361 265.621 315.732 258.054 310.967C256.808 310.181 255.62 309.519 254.199 310.482C248.311 314.447 242.016 317.901 237.987 324.159C234.288 329.906 230.517 335.608 226.779 341.329C224.416 344.946 224.48 344.835 228.445 346.834C236.586 350.929 245.225 351.958 253.063 351.309ZM245.948 381.003C245.896 387.143 249.725 391.317 255.471 391.396C261.121 391.475 265.388 387.241 265.556 381.383C265.711 376.035 261.243 371.422 255.814 371.323C250.112 371.225 246 375.262 245.948 381.003Z" fill="#BBA42F"/>
</svg>
